<svg id="Layer_1" viewBox="0 0 64 64" xmlns="http://www.w3.org/2000/svg"><path d="m63.615 10.231c-.016-.016-10.424-7.231-10.615-7.231h-6l-34.202 7.021c-.35.071-.557.329-.566.339l-5 6c-.249.298-.302.713-.138 1.064.165.351.518.576.906.576h22v3.184c-1.161.414-2 1.514-2 2.816 0 .932.436 1.756 1.105 2.307l-5.756 4.934c-.009.008-.009.018-.017.026-.201.183-.332.44-.332.734v4c0 .552.448 1 1 1h14c.552 0 1-.448 1-1v-4c0-.293-.131-.551-.332-.734-.008-.008-.008-.018-.017-.026l-5.756-4.934c.669-.551 1.105-1.375 1.105-2.307 0-1.302-.839-2.402-2-2.816v-3.184h13v35h-3c-.552 0-1 .448-1 1v3h-4v-16c0-.552-.448-1-1-1h-15v-17c0-.552-.448-1-1-1h-4c-.552 0-1 .448-1 1v10h-3v-10c0-.552-.448-1-1-1h-4c-.552 0-1 .448-1 1v10h-2c-.552 0-1 .448-1 1v23h-2c-.552 0-1 .448-1 1v5c0 .552.448 1 1 1h62c.552 0 1-.448 1-1v-5c0-.552-.448-1-1-1h-6v-3c0-.552-.448-1-1-1h-2v-35.256l3-.9v4.156c0 .552.448 1 1 1h5c.552 0 1-.448 1-1v-10c0-.316-.156-.586-.385-.769zm-32.615 12.769c.551 0 1 .449 1 1s-.448 1-.999 1h-.001c-.551 0-.999-.449-.999-1s.449-1 1-1zm0 4.317 4.297 3.683h-8.594zm6 7.683h-12v-2h12zm17-19.344v-3.656h8v1.256zm-10 .344v-4h8v4zm-13.865 0 2.865-3.438 2.865 3.438zm-7.319-6 22.218-4.574-2.614 4.574zm18.049 2-2.865 3.438-2.865-3.438zm-10 0-2.865 3.438-2.865-3.438zm-10 0-2.865 3.438-2.865-3.438zm2.135.562 2.865 3.438h-5.73zm19 1.2v2.238h-1.865zm5.721 19.238 4.279-3.057v6.113l-4.279-3.057zm3.559 5-4.279 3.057v-6.113l4.279 3.057zm0-10-4.279 3.057v-6.113l4.279 3.057zm-3.659-5.072 4.38-3.754v6.882zm.101 20.072 4.279-3.057v6.113l-4.279-3.057zm3.659 5.072-4.38 3.754v-6.882zm2.62-42.151 5.828 4.079h-5.828zm-2-.921v5h-7.277l2.857-5zm-39.001 7.562 2.865 3.438h-5.73zm37.297 5.438-3.297 2.826v-2.826zm-31.297 6v13.235l-2-3.5v-9.735zm-11 0h2v9h-2zm-3 11h10.42l3.712 6.496c.178.312.509.504.868.504h15v15h-8v-7c0-.552-.448-1-1-1h-12c-.552 0-1 .448-1 1v7h-8zm10 22v-6h10v6zm47 5h-60v-3h60zm-7-5h-12v-2h12zm-6.297-4 3.297-2.826v2.826zm10.297-33v-3.756l3-.9v4.656z"/><path d="m23 46h8c.552 0 1-.448 1-1s-.448-1-1-1h-8c-.552 0-1 .448-1 1s.448 1 1 1z"/><path d="m17 46c.552 0 1-.448 1-1s-.448-1-1-1h-8c-.552 0-1 .448-1 1s.448 1 1 1z"/><path d="m9 41h4c.552 0 1-.448 1-1s-.448-1-1-1h-4c-.552 0-1 .448-1 1s.448 1 1 1z"/></svg>