<?xml version="1.0" encoding="UTF-8" standalone="no"?>
<!-- Created with Inkscape (http://www.inkscape.org/) -->

<svg
   version="1.1"
   id="svg4488"
   xml:space="preserve"
   width="682.66669"
   height="682.66669"
   viewBox="0 0 682.66669 682.66669"
   xmlns="http://www.w3.org/2000/svg"
   xmlns:svg="http://www.w3.org/2000/svg"><defs
     id="defs4492"><clipPath
       clipPathUnits="userSpaceOnUse"
       id="clipPath4502"><path
         d="M 0,512 H 512 V 0 H 0 Z"
         id="path4500" /></clipPath></defs><g
     id="g4494"
     transform="matrix(1.3333333,0,0,-1.3333333,0,682.66667)"><g
       id="g4496"><g
         id="g4498"
         clip-path="url(#clipPath4502)"><g
           id="g4504"
           transform="translate(177.9746,408.0127)"><path
             d="m 0,0 c -46.856,-30.853 -76.938,-78.688 -76.938,-132.39 0,-93.053 90.316,-168.487 201.727,-168.487 33.284,0 64.686,6.732 92.358,18.656"
             style="fill:none;stroke:#000000;stroke-width:15;stroke-linecap:round;stroke-linejoin:round;stroke-miterlimit:10;stroke-dasharray:none;stroke-opacity:1"
             id="path4506" /></g><g
           id="g4508"
           transform="translate(502.9946,254.999)"><path
             d="m 0,0 c 0.988,6.759 1.496,13.642 1.496,20.624 0,93.053 -90.316,168.487 -201.727,168.487 -35.805,0 -69.432,-7.792 -98.582,-21.455"
             style="fill:none;stroke:#000000;stroke-width:15;stroke-linecap:round;stroke-linejoin:round;stroke-miterlimit:10;stroke-dasharray:none;stroke-opacity:1"
             id="path4510" /></g><g
           id="g4512"
           transform="translate(346.3364,111.0957)"><path
             d="m 0,0 c 0,0 36.267,-29.669 100.294,-39.628 10.051,-1.562 17.668,9.661 13.4,19.599 l -24.736,57.591 0.023,-0.045 c 27.92,20.343 49.069,47.004 60.255,77.314"
             style="fill:none;stroke:#000000;stroke-width:15;stroke-linecap:round;stroke-linejoin:round;stroke-miterlimit:10;stroke-dasharray:none;stroke-opacity:1"
             id="path4514" /></g><g
           id="g4516"
           transform="translate(428.8765,223.8877)"><path
             d="m 0,0 -25.235,90.562 c -2.136,7.665 -13.004,7.665 -15.14,0 L -65.61,0"
             style="fill:none;stroke:#000000;stroke-width:15;stroke-linecap:round;stroke-linejoin:round;stroke-miterlimit:10;stroke-dasharray:none;stroke-opacity:1"
             id="path4518" /></g><g
           id="g4520"
           transform="translate(371.936,255)"><path
             d="M 0,0 H 48.271"
             style="fill:none;stroke:#000000;stroke-width:15;stroke-linecap:round;stroke-linejoin:round;stroke-miterlimit:10;stroke-dasharray:none;stroke-opacity:1"
             id="path4522" /></g><g
           id="g4524"
           transform="translate(211.8794,223.8438)"><path
             d="m 0,0 v 0 c -14.468,0 -26.196,11.729 -26.196,26.196 v 44.006 c 0,14.467 11.728,26.195 26.196,26.195 14.467,0 26.196,-11.728 26.196,-26.195 V 26.196 C 26.196,11.729 14.467,0 0,0 Z"
             style="fill:none;stroke:#000000;stroke-width:15;stroke-linecap:round;stroke-linejoin:round;stroke-miterlimit:10;stroke-dasharray:none;stroke-opacity:1"
             id="path4526" /></g><g
           id="g4528"
           transform="translate(219.3735,247.8975)"><path
             d="M 0,0 24.121,-24.054"
             style="fill:none;stroke:#000000;stroke-width:15;stroke-linecap:round;stroke-linejoin:round;stroke-miterlimit:10;stroke-dasharray:none;stroke-opacity:1"
             id="path4530" /></g><g
           id="g4532"
           transform="translate(317.7158,304.3321)"><path
             d="m 0,0 c 0,-8.786 -15.909,-25.026 -15.909,-25.026 0,0 -15.909,16.24 -15.909,25.026 0,8.786 7.122,15.909 15.909,15.909 C -7.123,15.909 0,8.786 0,0 Z"
             style="fill:none;stroke:#000000;stroke-width:15;stroke-linecap:round;stroke-linejoin:round;stroke-miterlimit:10;stroke-dasharray:none;stroke-opacity:1"
             id="path4534" /></g><g
           id="g4536"
           transform="translate(331.0449,269.3203)"><path
             d="M 0,0 C 0,0 -6.154,-12.188 -10.166,-20.847 -25.935,-54.882 -50.66,-48.52 -53.701,-33.449 -57.33,-15.465 -29.238,9.985 -29.238,9.985 l 34.28,-55.418"
             style="fill:none;stroke:#000000;stroke-width:15;stroke-linecap:round;stroke-linejoin:round;stroke-miterlimit:10;stroke-dasharray:none;stroke-opacity:1"
             id="path4538" /></g><g
           id="g4540"
           transform="translate(184.3872,96.5284)"><path
             d="M 0,0 C 19.707,3.408 37.968,10.113 53.926,19.393"
             style="fill:none;stroke:#000000;stroke-width:15;stroke-linecap:round;stroke-linejoin:round;stroke-miterlimit:10;stroke-dasharray:none;stroke-opacity:1"
             id="path4542" /></g><g
           id="g4544"
           transform="translate(113.7969,334.6953)"><path
             d="m 0,0 c -61.378,-14.734 -106.288,-61.966 -106.288,-117.97 0,-36.916 19.513,-70.026 50.393,-92.528 l 0.018,0.033 -18.02,-41.956 c -3.11,-7.24 2.439,-15.416 9.761,-14.277 46.537,7.238 72.938,28.764 73.06,28.864 10.225,-1.881 20.847,-2.881 31.749,-2.881"
             style="fill:none;stroke:#000000;stroke-width:15;stroke-linecap:round;stroke-linejoin:round;stroke-miterlimit:10;stroke-dasharray:none;stroke-opacity:1"
             id="path4546" /></g></g></g></g></svg>
